
<svg viewBox="0 0 119 30" fill="none" xmlns="http://www.w3.org/2000/svg">
  <path d="M0 0.344H13.062C19.312 0.344 22.5 3.656 22.5 9.219V21.469C22.5 27.031 19.312 30.344 13.062 30.344H0V0.344ZM12.188 24.344C14.688 24.344 15.938 23.094 15.938 20.594V10.094C15.938 7.594 14.688 6.344 12.188 6.344H6.562V24.344H12.188Z" fill="white"/>
  <path d="M24.8125 0.344H33.375C40.875 0.344 45.1875 4.969 45.1875 12.156V18.531C45.1875 25.719 40.875 30.344 33.375 30.344H24.8125V0.344ZM33.375 24.344C36.8125 24.344 38.625 22.219 38.625 18.531V12.156C38.625 8.469 36.8125 6.344 33.375 6.344H31.375V24.344H33.375Z" fill="white"/>
  <path d="M47.8125 0.344H61.8125C67.5 0.344 70.6875 3.656 70.6875 9.156V10.781C70.6875 14.406 69 16.844 65.6875 17.781C69.25 18.594 71.0625 21.156 71.0625 25.031V26.031C71.0625 28.906 69.9375 30.344 67.6875 30.344H47.8125V0.344ZM60.75 12.344C62.875 12.344 64 11.219 64 9.094V7.781C64 7 63.75 6.344 63.25 6.031C62.75 5.594 62 5.344 60.9375 5.344H54.375V12.344H60.75ZM61.1875 25.344C63.3125 25.344 64.4375 24.219 64.4375 22.094V20.719C64.4375 18.594 63.3125 17.469 61.1875 17.469H54.375V25.344H61.1875Z" fill="white"/>
  <path d="M72.75 0.344H79.3125V24.344H92.3125V30.344H72.75V0.344Z" fill="white"/>
  <path d="M93.5625 0.344H107.375C113.125 0.344 116.312 3.531 116.312 9.156V21.531C116.312 27.156 113.125 30.344 107.375 30.344H93.5625V0.344ZM106.5 24.344C109 24.344 110.25 23.094 110.25 20.594V10.094C110.25 7.594 109 6.344 106.5 6.344H100.125V24.344H106.5Z" fill="white"/>
  <path d="M6.625 28.188C16.4531 28.188 28.0625 26.5625 57.125 26.5625C86.1875 26.5625 102.781 28.1875 112.125 28.1875" stroke="white" strokeWidth="3"/>
  <circle cx="6.5" cy="28.5" r="3.5" fill="white"/>
  <circle cx="112.5" cy="28.5" r="3.5" fill="white"/>
</svg>
