
<svg width="400" height="400" viewBox="0 0 400 400" fill="none" xmlns="http://www.w3.org/2000/svg">
  <rect width="400" height="400" fill="black"/>
  <path d="M99 150H179C197 150 206 160 206 177V222C206 239 197 249 179 249H99V150Z" fill="white"/>
  <path d="M214 150H245C269 150 281 163 281 187V212C281 236 269 249 245 249H214V150Z" fill="white"/>
  <path d="M289 150H338C356 150 366 160 366 177V182C366 192 361 199 350 201C361 203 366 211 366 223V226C366 234 363 249 355 249H289V150Z" fill="white"/>
  <path d="M99 150H179C197 150 206 160 206 177V222C206 239 197 249 179 249H99V150ZM170 225C178 225 182 222 182 213V186C182 178 178 174 170 174H123V225H170Z" fill="white"/>
  <path d="M214 150H245C269 150 281 163 281 187V212C281 236 269 249 245 249H214V150ZM245 225C255 225 260 220 260 212V187C260 179 255 174 245 174H238V225H245Z" fill="white"/>
  <path d="M289 150H338C356 150 366 160 366 177V182C366 192 361 199 350 201C361 203 366 211 366 223V226C366 234 363 249 355 249H289V150ZM329 186C335 186 338 183 338 177V174C338 172 338 170 336 169C335 168 332 167 329 167H313V186H329ZM330 232C336 232 339 229 339 224V219C339 214 336 211 330 211H313V232H330Z" fill="white"/>
  <path d="M99 258C128 258 164 252 250 252C335 252 380 258 300 258" stroke="white" stroke-width="16"/>
  <circle cx="98" cy="258" r="18" fill="white"/>
  <circle cx="300" cy="258" r="18" fill="white"/>
</svg>
